<?xml version="1.0" encoding="UTF-8" standalone="no"?>
<!-- Created with Inkscape (http://www.inkscape.org/) -->

<svg
   xmlns:dc="http://purl.org/dc/elements/1.1/"
   xmlns:cc="http://creativecommons.org/ns#"
   xmlns:rdf="http://www.w3.org/1999/02/22-rdf-syntax-ns#"
   xmlns:svg="http://www.w3.org/2000/svg"
   xmlns="http://www.w3.org/2000/svg"
   xmlns:sodipodi="http://sodipodi.sourceforge.net/DTD/sodipodi-0.dtd"
   xmlns:inkscape="http://www.inkscape.org/namespaces/inkscape"
   width="400"
   height="200"
   id="svg2"
   version="1.1"
   inkscape:version="0.48.4 r9939"
   sodipodi:docname="masted-boy.svg">
  <defs
     id="defs4" />
  <sodipodi:namedview
     id="base"
     pagecolor="#ffffff"
     bordercolor="#666666"
     borderopacity="1.0"
     inkscape:pageopacity="0.0"
     inkscape:pageshadow="2"
     inkscape:zoom="1.4"
     inkscape:cx="244.38616"
     inkscape:cy="77.857143"
     inkscape:document-units="px"
     inkscape:current-layer="layer1"
     showgrid="false"
     inkscape:window-width="1366"
     inkscape:window-height="684"
     inkscape:window-x="-8"
     inkscape:window-y="-8"
     inkscape:window-maximized="1" />
  <metadata
     id="metadata7">
    <rdf:RDF>
      <cc:Work
         rdf:about="">
        <dc:format>image/svg+xml</dc:format>
        <dc:type
           rdf:resource="http://purl.org/dc/dcmitype/StillImage" />
        <dc:title></dc:title>
      </cc:Work>
    </rdf:RDF>
  </metadata>
  <g
     inkscape:label="Layer 1"
     inkscape:groupmode="layer"
     id="layer1"
     transform="translate(0,-852.36218)">
    <path
       style="fill:#ffffff"
       id="path3057"
       d="m 55.499769,19.905307 c -2.577049,7.101561 -4.603392,14.395921 -6.799697,21.622852 -3.000565,9.960072 -6.098902,19.889027 -9.118092,29.84319 -0.951787,3.376299 -1.888236,6.763173 -2.949645,10.107467 -0.225953,0.711935 -0.482501,1.413813 -0.72971,2.118648 -0.116739,0.332842 -0.03608,1.128901 -0.362098,0.994279 -2.061047,-0.851061 -3.801289,-2.332185 -5.701933,-3.498278 2.447847,-9.329771 5.058607,-18.615702 7.587472,-27.924263 2.709816,-9.251189 5.245787,-18.558583 8.363664,-27.683433 1.262368,-3.656986 0.836563,-2.623435 2.254548,-6.002453 0.707516,-1.68599 2.215922,-6.17122 5.135665,-5.314426 1.583175,0.464581 2.355672,2.310827 3.533508,3.466241 0.139003,1.077164 0.322868,2.149483 0.41701,3.231492 0.185169,2.128216 0.273699,6.472599 0.309312,8.45562 0.09898,5.511462 0.09476,11.024607 0.105668,16.536704 0.0033,10.078234 -0.01864,20.156455 -0.03274,30.234674 -0.242567,4.342707 0.499595,8.629388 1.001017,12.92268 0.01868,0.454449 0.496511,3.675213 0.09776,3.969614 -1.412268,1.04269 -3.190749,1.464902 -4.786123,2.197353 -4.067763,-2.028934 -1.198416,-7.781619 2.869346,-5.752685 l 0,0 c -5.257255,2.849567 -4.166229,4.247255 -4.566299,0.330219 -0.528786,-4.543311 -1.29137,-9.081364 -1.044268,-13.676173 0.01409,-10.070989 0.03599,-20.141978 0.03275,-30.212981 -0.01725,-8.748952 0.08018,-17.515489 -0.516917,-26.2486 4.364351,1.55938 1.194384,1.264624 4.793822,-0.493116 0.256858,-0.125433 -0.37019,0.442376 -0.49832,0.6979 -1.239001,2.470889 -2.11361,5.13986 -3.023267,7.738821 -3.080221,8.991911 -5.562703,18.171881 -8.24242,27.287919 -2.528,9.305363 -5.138467,18.587916 -7.584867,27.914641 -2.181312,-0.126607 -4.403398,0.05864 -6.543938,-0.379819 -0.310708,-0.06364 0.220699,-0.594715 0.326381,-0.893749 0.217617,-0.615761 0.446103,-1.228024 0.64349,-1.850565 1.063858,-3.355302 2.003421,-6.752909 2.959326,-10.139686 3.019689,-9.955226 6.118097,-19.885364 9.1191,-29.846511 2.249531,-7.401971 4.321318,-14.874595 6.981718,-22.141087 1.688226,-4.220564 7.657004,-1.833053 5.968779,2.387511 z"
       inkscape:connector-curvature="0"
       transform="translate(0,852.36218)" />
    <path
       style="fill:#ffffff"
       id="path3059"
       d="m 36.397813,56.071428 c 3.946972,0 7.893944,0 11.840916,0 0.755057,0 1.510114,0 2.265171,0 4.545686,0 4.545686,6.428572 0,6.428572 l 0,0 c -0.755057,0 -1.510114,0 -2.265171,0 -3.946972,0 -7.893944,0 -11.840916,0 -4.545687,0 -4.545687,-6.428572 0,-6.428572 z"
       inkscape:connector-curvature="0"
       transform="translate(0,852.36218)" />
    <path
       style="fill:#ffffff"
       id="path3065"
       d="m 82.878458,47.957663 c -1.221365,3.244349 -4.263302,4.33162 -6.765934,0.97362 -0.640251,-0.859081 -0.293574,-2.484372 -0.148826,-3.488804 0.675143,-2.156333 1.65506,-4.365729 3.248239,-6.019833 0.388098,-0.40294 0.840751,-0.738282 1.261127,-1.107423 2.932077,-1.995801 6.473465,-1.80308 9.106947,0.637597 0.47856,0.443523 0.843563,0.995656 1.265344,1.493484 1.892208,2.936795 2.183767,6.375388 2.355004,9.769967 0.09089,2.937412 0.05473,5.876882 0.0397,8.815147 0.05497,3.224386 -0.705498,6.383498 -1.591913,9.459858 -0.709569,3.249505 -2.131301,6.217682 -3.641815,9.151756 -1.527827,2.997433 -3.259235,5.836608 -5.449299,8.39535 -2.175381,2.111273 -5.154851,3.575062 -8.162769,2.204775 -0.539595,-0.245819 -1.015079,-0.613167 -1.522618,-0.91975 -2.570001,-2.60543 -4.161418,-6.026623 -4.968893,-9.564974 -0.04611,-0.413147 -0.09222,-0.826293 -0.13833,-1.23944 -0.441578,-4.524187 5.95659,-5.148673 6.398168,-0.624486 l 0,0 c 0.0131,0.19346 0.02619,0.386919 0.03929,0.580378 0.305145,2.05557 1.509089,3.747875 2.374989,5.595159 -0.12946,0.16151 -0.11364,0.07469 0.120917,0.235514 -0.08562,0.127589 -0.323701,0.07063 -0.419711,0.190597 -0.04864,0.06078 0.153593,0.06955 0.228496,0.04833 0.489845,-0.138759 0.807871,-0.436591 1.206711,-0.732759 1.909084,-2.120629 3.239803,-4.607912 4.577551,-7.111418 1.320394,-2.564285 2.591133,-5.137571 3.180565,-7.990696 0.724363,-2.508356 1.399955,-5.079345 1.340172,-7.711071 0.01444,-2.822295 0.04886,-5.645651 -0.03206,-8.46725 -0.09821,-2.070439 -0.169415,-4.212549 -1.010834,-6.141145 -0.06811,-0.125491 -0.729677,-1.272255 -0.781271,-1.267669 -0.15956,0.01418 -0.29907,0.114892 -0.448605,0.172338 -1.148898,0.701747 -1.573718,2.052877 -2.224668,3.146918 -0.03466,0.186884 0.03352,0.691889 -0.103972,0.560654 -1.472474,-1.405459 1.872129,-2.304801 -2.977593,-2.429792 -2.052274,-0.05289 -2.893017,2.201024 -2.452789,1.352177 1.437472,-4.312417 7.536151,-2.279524 6.098679,2.032893 z"
       inkscape:connector-curvature="0"
       transform="translate(0,852.36218)" />
    <path
       style="fill:#ffffff"
       id="path3067"
       d="m 76.397813,54.642857 c 3.627599,0 7.255199,0 10.882798,0 1.562167,0.230379 3.355301,0.113275 4.840016,0.784473 0.491134,0.222028 0.926313,0.551343 1.38947,0.827015 3.483646,2.920184 -0.646118,7.846804 -4.129764,4.92662 l 0,0 c 1.907273,0.866736 0.770589,0.321347 0.459165,0.248678 -0.974073,-0.227297 -1.523281,-0.247925 -2.558887,-0.358215 -3.627599,0 -7.255199,0 -10.882798,0 -4.545687,0 -4.545687,-6.428571 0,-6.428571 z"
       inkscape:connector-curvature="0"
       transform="translate(0,852.36218)" />
    <path
       style="fill:#ffffff"
       id="path3069"
       d="m 101.78571,51.397813 c -0.61926,5.199767 -1.02152,10.41744 -1.59582,15.622912 -0.591053,4.818464 -0.868531,9.664471 -1.181558,14.506105 -0.02423,0.195277 0.124068,0.588963 -0.07268,0.58583 -2.152114,-0.03427 -4.380288,-0.0028 -6.420273,-0.689218 -0.467171,-0.157205 -0.04116,-0.986043 -0.02183,-1.478576 0.10574,-2.694245 0.46215,-5.36529 0.842652,-8.030537 0.748438,-4.893346 1.639406,-9.89109 3.527461,-14.500198 0.317569,-0.77525 0.720017,-1.512952 1.080025,-2.269428 1.417319,-2.775893 3.44353,-6.058814 6.80262,-6.701539 0.70479,-0.134854 1.43473,-0.03461 2.1521,-0.05191 0.71574,0.331445 1.54194,0.48859 2.14721,0.994336 2.89408,2.418183 2.5962,9.404455 2.70753,12.890231 0.17936,5.746633 -0.40047,11.49068 -1.43292,17.137135 -0.99256,4.402345 -1.16321,6.840394 -7.32586,2.961301 -0.26197,-0.1649 -0.3823,-3.607487 -0.393,-3.808608 -0.34248,-5.057291 0.85991,-9.991078 2.54598,-14.714598 1.42399,-4.789568 4.47339,-8.623821 7.80087,-12.227372 2.46976,-2.304122 6.3151,-6.188951 9.99953,-3.474983 0.86793,0.639326 1.24801,1.75803 1.87201,2.637045 1.70691,5.64809 1.06842,11.577914 0.65486,17.363287 -0.38684,4.836497 -0.63344,9.682274 -0.76737,14.531948 -0.0698,3.257087 0.34745,1.66033 -2.99151,5.191944 -4.49901,0.649733 -5.41787,-5.712831 -0.91886,-6.362564 l 0,0 c -3.41595,4.056204 -2.48594,3.856691 -2.51574,0.992705 0.1372,-4.943332 0.38726,-9.882782 0.78129,-14.812737 0.33739,-4.71277 0.83792,-9.470316 -0.0544,-14.156783 0.83966,0.203698 0.96565,0.305033 1.99095,0.107196 0.0593,-0.01144 0.0403,-0.189512 -0.0193,-0.180054 -1.38993,0.220508 -2.21235,1.830542 -3.31401,2.530107 -2.75692,2.969587 -5.3334,6.056211 -6.47051,10.039681 -1.42613,3.91257 -2.46093,8.012345 -2.17341,12.211825 0.0239,0.510967 0.062,1.021469 0.0718,1.532902 0.003,0.157114 0.12366,0.476891 -0.0333,0.470249 -1.72045,-0.07278 -3.40225,-0.810439 -5.1199,-0.688264 -0.40754,0.02899 -0.25822,0.812939 -0.55661,1.092033 -0.6021,0.563172 2.14493,-4.145001 0.61341,-2.396017 0.95631,-5.196448 1.49473,-10.484697 1.33065,-15.774456 -0.062,-1.987693 -0.0786,-3.230483 -0.22221,-5.189988 -0.0481,-0.656621 -0.13627,-1.309842 -0.18753,-1.966226 -0.0221,-0.283135 -0.20979,-0.629498 -0.0325,-0.851372 0.29074,-0.36388 1.06026,1.19798 1.36121,0.315553 0.15581,-0.07453 0.35162,-0.09543 0.46743,-0.223573 0.0662,-0.07323 -0.16813,-0.201525 -0.79843,0.250581 -1.06504,0.763943 -1.603,2.023647 -2.19014,3.140971 -2.31128,4.619493 -3.27901,9.804655 -4.026693,14.877543 -0.494009,3.384795 -0.330066,1.920758 -0.622854,5.228089 -0.05335,0.602694 -0.124661,1.204255 -0.154379,1.808576 -0.01873,0.380968 0.382168,1.0645 0.0092,1.144248 -6.661945,1.424349 -6.804092,2.266259 -6.33768,0.09878 0.319523,-4.938492 0.605145,-9.881239 1.206932,-14.796189 0.548506,-4.971196 0.902188,-9.96157 1.557047,-14.917918 0,-4.545687 6.428567,-4.545687 6.428567,0 z"
       inkscape:connector-curvature="0"
       transform="translate(0,852.36218)" />
    <path
       style="fill:#ffffff"
       id="path3071"
       d="m 138.04697,53.009896 c -2.03777,3.225755 -3.53486,6.757812 -4.6514,10.397018 -1.2224,4.308037 -1.43993,8.789296 -1.58681,13.237294 0.0809,1.803896 -0.28807,3.655685 0.0918,5.445169 0.10137,0.477571 0.24413,0.897204 0.7451,0.81859 0.15102,-0.404491 -0.53732,-0.333176 -0.53572,-0.601719 0.001,-0.199317 0.32289,-0.238716 0.45508,-0.387892 0.91348,-1.030838 1.59304,-2.417223 2.27659,-3.58688 3.25883,-5.313783 4.46901,-10.863869 5.38205,-16.939454 0.40663,-3.411469 0.86843,-6.868514 0.4276,-10.304856 -0.0967,-0.753752 -0.48061,-2.029693 -0.68524,-2.762796 -0.0779,-0.173944 -0.55822,-1.302568 -1.06075,-1.122419 -0.13406,0.04806 0.028,0.32253 -0.0754,0.420533 -0.13083,0.124087 -0.30735,0.188654 -0.46102,0.282981 -3.28012,2.84325 -5.23686,6.684626 -6.90132,10.61301 -0.91628,2.551297 -1.3993,5.212852 -1.87142,7.871064 -0.80275,4.474243 -7.13029,3.338977 -6.32754,-1.135266 l 0,0 c 0.56784,-3.136929 1.15576,-6.275123 2.29115,-9.270432 2.38056,-5.492044 5.27222,-10.980864 10.60492,-14.117251 1.75885,-0.545238 2.48848,-0.994402 4.4041,-0.654858 2.89115,0.512461 4.63439,2.848504 5.59892,5.419858 0.4064,1.514683 0.70393,2.436266 0.8989,4.043494 0.47239,3.894129 -0.0165,7.816471 -0.48708,11.681059 -1.07275,7.012854 -2.48417,13.103247 -6.20615,19.250391 -2.10055,3.51199 -4.78049,7.820181 -9.58942,7.194382 -0.77405,-0.100729 -1.44553,-0.589596 -2.1683,-0.884395 -0.51074,-0.475807 -1.09777,-0.881076 -1.53223,-1.427422 -2.26376,-2.84675 -1.72871,-6.693444 -1.69967,-10.059052 0.16895,-5.024096 0.45968,-10.078585 1.87415,-14.935119 1.329,-4.213968 3.04319,-8.321509 5.44016,-12.050962 2.5215,-3.78224 7.87039,-0.21631 5.3489,3.56593 z"
       inkscape:connector-curvature="0"
       transform="translate(0,852.36218)" />
    <path
       style="fill:#ffffff"
       id="path3073"
       d="m 177.5,35.854409 c -0.68995,7.453089 -1.79635,14.865285 -2.88203,22.269642 -1.16318,8.574655 -2.1983,17.164833 -3.28365,25.74999 -0.65947,4.002044 -0.27089,8.235975 -1.97944,11.992885 -2.122,4.019996 -7.80714,1.019031 -5.68513,-3.000965 l 0,0 c 0.0849,0.374762 0.0483,0.300503 0.26771,-0.708514 0.43964,-2.022147 0.46334,-4.131345 0.68464,-6.183509 0.10455,-0.969537 0.22295,-1.937531 0.33442,-2.906296 1.09098,-8.627406 2.13047,-17.259974 3.30095,-25.876676 1.04165,-7.096954 2.06908,-14.202041 2.81396,-21.336557 0,-4.545687 6.42857,-4.545687 6.42857,0 z"
       inkscape:connector-curvature="0"
       transform="translate(0,852.36218)" />
    <path
       style="fill:#ffffff"
       id="path3075"
       d="m 158.06763,68.922636 c 3.6013,-1.297477 7.25878,-2.448606 10.92328,-3.560564 2.61512,-0.970053 5.26323,-1.821955 7.95982,-2.531158 4.39815,-1.148734 6.0227,5.071182 1.62456,6.219916 l 0,0 c -2.61888,0.678441 -5.17623,1.539476 -7.719,2.463223 -3.60892,1.093439 -7.21204,2.222995 -10.75577,3.507261 -4.31242,1.437473 -6.34531,-4.661206 -2.03289,-6.098678 z"
       inkscape:connector-curvature="0"
       transform="translate(0,852.36218)" />
    <path
       style="fill:#ffffff"
       id="path3077"
       d="m 188.92857,39.969241 c -0.0877,4.92171 -1.07465,9.778991 -1.70917,14.650824 -1.35503,7.290311 -1.75021,14.690939 -2.45342,22.05579 -0.40831,3.694694 -0.78398,7.392785 -1.17608,11.089179 -0.47956,4.520319 -6.87226,3.842114 -6.3927,-0.678205 l 0,0 c 0.3899,-3.674673 0.7629,-7.351093 1.16951,-11.024011 0.71492,-7.437081 1.1095,-14.911762 2.4781,-22.274075 0.60011,-4.595873 1.53235,-9.181154 1.65519,-13.819502 0,-4.545686 6.42857,-4.545686 6.42857,0 z"
       inkscape:connector-curvature="0"
       transform="translate(0,852.36218)" />
    <path
       style="fill:#ffffff"
       id="path3079"
       d="m 202.49407,58.360944 c -0.85034,-0.733264 -2.00075,-0.949125 -3.06499,-1.176434 -1.68451,0.09568 -3.08877,1.676019 -4.1532,2.853102 -2.0563,3.063528 -2.59409,6.532252 -3.01743,10.116731 -0.24705,2.707168 -0.59351,7.250457 1.38766,9.472071 0.0393,-0.06016 0.13487,-0.110608 0.118,-0.180477 -0.0344,-0.142622 -0.19882,-0.225024 -0.24921,-0.362822 -0.15713,-0.429692 0.89048,-1.063883 1.31245,-1.49364 0.38438,-0.391464 0.72741,-0.82148 1.09111,-1.23222 2.70421,-3.405971 4.16861,-7.593111 5.3933,-11.717278 0.50016,-2.105424 0.37992,-1.453464 0.73709,-3.502002 0.0773,-0.443521 0.17545,-0.884536 0.22092,-1.332446 0.007,-0.07039 -0.0782,-0.271545 -0.0651,-0.202016 0.57331,3.044864 0.16272,1.198202 5.9139,1.246525 -1.10307,3.64195 -1.43501,7.450946 -1.72943,11.226438 -0.0587,2.035307 -0.3168,4.079718 -0.271,6.118631 0.0217,0.96762 0.20846,1.86503 0.38571,1.856847 0.20431,-0.0094 -0.0296,-0.407984 -0.0444,-0.611976 0.42496,-0.506845 -0.88229,-0.516981 -0.74176,-0.871678 0.1173,-0.296071 0.49795,-0.397787 0.73397,-0.611594 0.42421,-0.384287 0.85267,-0.765771 1.24575,-1.181834 0.50798,-0.537664 0.96954,-1.117355 1.4543,-1.676033 3.0116,-3.404932 7.8269,0.854108 4.8153,4.259039 l 0,0 c -2.34789,2.616709 -5.36259,6.275639 -9.38119,5.793253 -0.92,-0.110435 -1.71211,-0.709263 -2.56816,-1.063894 -0.55412,-0.719482 -1.23601,-1.356619 -1.66236,-2.158445 -1.35475,-2.547836 -0.34676,-7.537076 -0.37509,-10.354998 0.34039,-4.316455 0.75305,-8.666798 2.06033,-12.817701 2.01453,-0.354258 4.00857,-1.268962 6.0436,-1.062775 0.60183,0.06098 0.44717,1.133786 0.54654,1.730481 0.33793,2.029361 -0.85497,5.077789 -1.16036,7.059592 -1.52151,5.048827 -3.38827,10.110588 -6.8068,14.210977 -2.68666,2.877852 -6.24816,6.232478 -10.49934,4.077668 -0.69023,-0.349862 -1.19623,-0.982016 -1.79434,-1.473024 -0.37603,-0.586971 -0.81398,-1.138609 -1.1281,-1.760913 -1.87248,-3.709498 -1.74195,-8.149465 -1.36558,-12.154101 0.64277,-5.228487 1.4867,-9.453247 4.72154,-13.755647 2.9219,-3.024086 5.83618,-5.264647 10.28603,-4.705664 3.26298,0.794471 6.30486,2.118488 7.70897,5.405364 1.43748,4.312417 -4.6612,6.34531 -6.09867,2.032893 z"
       inkscape:connector-curvature="0"
       transform="translate(0,852.36218)" />
    <path
       style="fill:#ffffff"
       id="path3081"
       d="m 224.64286,52.997266 c -0.18356,4.374525 -0.7593,8.728163 -1.04199,13.103094 -0.24075,4.526985 -1.5077,9.015882 -1.38305,13.559569 0.0726,0.20486 0.0554,0.470164 0.21788,0.614581 0.0969,0.08614 0.10084,-0.273639 0.038,-0.38705 -0.19679,-0.355369 -0.48749,-0.65328 -0.77375,-0.941503 -0.144,-0.144998 -0.5489,-0.146963 -0.50563,-0.34669 0.0605,-0.279444 0.46328,-0.335321 0.69086,-0.508411 0.38992,-0.296558 0.77433,-0.600287 1.16149,-0.900431 1.83782,-1.588539 0.91211,-0.760834 2.77328,-2.487414 3.33614,-3.087618 7.70269,1.630408 4.36655,4.718026 l 0,0 c -2.14452,1.980606 -1.05209,1.011075 -3.27751,2.908361 -1.04805,0.771569 -2.61046,2.055132 -3.88688,2.433124 -3.16488,0.937229 -5.63404,0.168433 -6.85014,-3.041378 -0.23863,-0.629827 -0.25487,-1.322701 -0.3823,-1.984052 -0.01,-4.718476 0.97774,-9.361843 1.39605,-14.052554 0.16926,-2.603401 0.36706,-5.197394 0.64145,-7.792079 0.125,-1.182066 0.32139,-2.35806 0.38708,-3.5449 0.0249,-0.44941 0,-0.900196 0,-1.350293 0,-4.545687 6.42857,-4.545687 6.42857,0 z"
       inkscape:connector-curvature="0"
       transform="translate(0,852.36218)" />
    <path
       style="fill:#ffffff"
       id="path3083"
       d="m 240.09029,53.605963 c -0.72774,4.398161 -1.38465,8.805391 -1.88161,13.236824 -0.77484,4.746891 -1.48173,9.498213 -1.88002,14.292673 0.0215,0.367566 0.25773,1.41616 0.0646,1.102699 -0.33092,-0.537017 -0.0895,-1.351161 -0.50832,-1.822819 -0.49208,-0.554114 -1.63816,-0.33866 -1.99023,-0.990753 -0.20883,-0.386782 0.66208,-0.578956 0.97739,-0.885204 1.65221,-1.604729 2.4194,-2.478101 4.06528,-4.242511 4.8452,-5.624895 9.78332,-11.210748 13.57193,-17.619122 0.89291,-2.093604 3.31036,-5.940559 2.16332,-8.33797 -0.0299,0.01937 -0.10951,0.02848 -0.0897,0.05811 1.08867,1.630106 1.04782,1.182453 3.66615,1.198904 0.16084,0.001 0.28456,-0.242117 0.43955,-0.199098 0.0736,0.02043 -0.14396,0.83502 -0.25823,1.323815 -1.38676,4.706872 -2.33131,9.486124 -2.95569,14.349089 -0.75156,4.61139 -1.57993,9.207892 -2.01706,13.862204 -0.12552,1.820655 -0.17438,1.050721 -0.0142,2.314404 0.35824,4.531548 -6.05033,5.038177 -6.40857,0.506629 l 0,0 c -0.1322,-2.272794 -0.13824,-1.130766 0.0228,-3.426055 0.44948,-4.726646 1.26058,-9.399573 2.0415,-14.080731 0.66939,-5.153467 1.66395,-10.225149 3.12881,-15.215463 0.38345,-1.310427 1.23252,-4.519609 2.81403,-5.006227 3.47114,-1.068042 4.639,-0.0717 5.86467,2.744654 0.12928,0.634861 0.32257,1.259989 0.38786,1.904583 0.40552,4.003529 -1.54281,7.832505 -3.26018,11.289671 -0.57797,0.966465 -1.12079,1.954838 -1.73391,2.899394 -3.68192,5.672295 -8.34862,10.644424 -12.66567,15.822019 -1.18555,1.267005 -3.50366,3.828939 -4.87358,4.972489 -0.77015,0.642892 -1.49035,1.485012 -2.46344,1.728988 -4.70986,1.180862 -6.42151,-0.389915 -6.3753,-4.786338 0.4069,-4.85491 1.098,-9.670767 1.89796,-14.475806 0.53055,-4.713506 1.21642,-9.406976 2.03335,-14.078211 1.10249,-4.409963 7.33912,-2.850806 6.23663,1.559158 z"
       inkscape:connector-curvature="0"
       transform="translate(0,852.36218)" />
    <path
       style="fill:#ffffff"
       id="path3085"
       d="m 272.99967,47.982287 c -1.43939,6.208729 -2.71651,12.455223 -4.15965,18.663361 -0.99287,3.972945 -1.56603,8.027806 -2.38177,12.036337 -0.90983,4.453704 -7.20832,3.167012 -6.29849,-1.286692 l 0,0 c 0.83371,-4.06407 1.40254,-8.17948 2.41905,-12.206945 1.41577,-6.074841 2.6506,-12.191215 4.07976,-18.262912 0.7473,-4.483837 7.08841,-3.426986 6.3411,1.056851 z"
       inkscape:connector-curvature="0"
       transform="translate(0,852.36218)" />
    <path
       style="fill:#ffffff"
       id="path3087"
       d="m 260.92477,66.065493 c 2.82753,-0.815277 5.48826,-2.139679 8.18675,-3.302424 1.71988,-0.755511 3.5316,-1.217711 5.35029,-1.654452 4.42396,-1.044925 5.90171,5.211496 1.47775,6.25642 l 0,0 c -1.45807,0.336942 -2.90852,0.699662 -4.2858,1.302569 -2.86598,1.232958 -5.69611,2.621669 -8.6961,3.496566 -4.31241,1.437472 -6.34531,-4.661207 -2.03289,-6.098679 z"
       inkscape:connector-curvature="0"
       transform="translate(0,852.36218)" />
    <path
       style="fill:#ffffff"
       id="path3089"
       d="m 288.24747,45.692428 c -1.63602,4.218763 -2.66464,8.628715 -3.81349,12.995342 -1.21753,5.756537 -2.45169,11.51778 -3.35557,17.334573 -0.46841,3.026591 -0.61799,6.084872 -0.73562,9.140667 -0.1749,4.542321 -6.59871,4.294979 -6.42381,-0.247342 l 0,0 c 0.12726,-3.304274 0.29979,-6.610468 0.80745,-9.882711 0.94189,-6.033563 2.21185,-12.012642 3.49064,-17.98118 1.26119,-4.791632 2.38491,-9.640289 4.28051,-14.234294 2.03289,-4.065785 7.78278,-1.190841 5.74989,2.874945 z"
       inkscape:connector-curvature="0"
       transform="translate(0,852.36218)" />
    <path
       style="fill:#ffffff"
       id="path3091"
       d="m 300.90411,51.581324 c -2.10723,2.738316 -3.44179,5.933998 -4.74337,9.104869 -1.75517,4.413706 -2.37212,9.097992 -2.75535,13.795196 -0.0723,1.505212 -0.32762,3.157055 0.2823,4.602946 0.0446,0.105672 0.56589,1.021391 0.78435,0.570113 1.13413,-1.176878 -1.60809,-0.132174 -1.51306,-0.676394 0.059,-0.33804 0.40458,-0.554566 0.59667,-0.838918 0.34101,-0.504807 0.68621,-1.007444 1.00238,-1.528172 1.45451,-2.395565 1.37001,-2.393641 2.61967,-5.008783 2.05907,-4.694135 3.43681,-9.71517 3.50952,-14.855349 -0.0668,-1.887215 -0.064,-4.103724 -1.37976,-5.634299 -0.48672,-0.566194 -0.3784,-0.507648 -0.85299,-0.431746 -0.0254,0.07548 -0.026,0.164516 -0.0761,0.22643 -0.4552,0.563013 -1.25367,1.062923 -1.74591,1.549153 -1.19551,1.180898 -1.1366,1.264546 -2.05776,2.692835 -0.35191,0.639027 -0.70383,1.278055 -1.05574,1.917083 -2.21479,3.969634 -7.8287,0.837454 -5.61391,-3.13218 l 0,0 c 0.44949,-0.797351 0.89898,-1.594702 1.34847,-2.392053 0.5265,-0.752925 0.99901,-1.546646 1.57951,-2.258773 1.95036,-2.39261 4.91786,-4.855212 8.19243,-4.771986 0.82191,0.02089 1.61306,0.319278 2.41959,0.478917 0.66315,0.415172 1.39184,0.740545 1.98945,1.245516 3.06712,2.591662 3.61252,6.935331 3.67924,10.671449 -0.0308,0.937181 -0.0109,1.877406 -0.0924,2.811544 -0.44285,5.074839 -2.06423,10.019679 -4.05196,14.673125 -1.52905,3.153049 -4.73579,10.287513 -8.64491,11.112932 -0.97208,0.205258 -1.98115,-0.15281 -2.97172,-0.229215 -0.55505,-0.368939 -1.17268,-0.657746 -1.66516,-1.106818 -2.86035,-2.608227 -2.98622,-6.642315 -2.68914,-10.215014 0.44478,-5.354721 1.20007,-10.687644 3.21622,-15.711209 1.46523,-3.561196 2.99621,-7.137302 5.34049,-10.227129 2.52149,-3.782239 7.87039,-0.216309 5.34889,3.56593 z"
       inkscape:connector-curvature="0"
       transform="translate(0,852.36218)" />
    <path
       style="fill:#ffffff"
       id="path3093"
       d="m 311.95303,51.275818 c 2.92388,-3.577212 6.42695,-6.60139 9.8799,-9.650288 2.92647,-2.613066 5.9961,-5.114177 8.59217,-8.073585 1.33407,-1.520787 1.61355,-2.104904 2.6584,-3.768955 1.60839,-2.752377 2.10864,-5.812195 2.30791,-8.937958 -0.0776,-2.06986 0.52072,-4.504874 -0.55615,-6.40772 -0.0647,-0.01939 -0.12976,-0.079 -0.19396,-0.05816 -0.0816,0.02648 -1.74254,1.227463 -1.74646,1.230119 -2.40578,3.572309 -3.41107,7.996821 -4.47874,12.115648 -1.96632,7.413403 -3.89679,14.838396 -5.14589,22.410034 -1.18298,7.113985 -2.28102,14.24323 -3.32338,21.379563 -0.22641,2.440371 -0.73735,4.838202 -1.22143,7.236172 -0.90061,4.455576 -7.20175,3.181914 -6.30114,-1.273662 l 0,0 c 0.46226,-2.283802 0.9573,-4.56569 1.16155,-6.892026 1.04921,-7.177165 2.15284,-14.347415 3.34253,-21.502256 1.29451,-7.761274 3.23869,-15.381397 5.26733,-22.98042 1.15128,-4.388787 2.66961,-10.816626 5.63452,-14.354273 0.51882,-0.619043 1.17838,-1.104973 1.76758,-1.657459 0.58884,-0.3319508 1.14593,-0.7279301 1.76654,-0.9958516 2.85733,-1.2335403 6.04316,-0.9553983 8.32578,1.3049356 0.44604,0.44168 0.71476,1.032103 1.07215,1.548154 0.20251,0.532017 0.44438,1.050672 0.60753,1.59605 0.7491,2.504205 0.48197,5.161418 0.43597,7.728946 -0.29052,4.205656 -1.09735,8.299991 -3.3037,11.969343 -1.45009,2.242769 -1.65075,2.727565 -3.46281,4.785971 -2.71079,3.079329 -5.90063,5.696951 -8.95332,8.418047 -3.03992,2.67953 -6.10988,5.347181 -8.78398,8.395564 -2.5215,3.78224 -7.87039,0.21631 -5.3489,-3.56593 z"
       inkscape:connector-curvature="0"
       transform="translate(0,852.36218)" />
    <path
       style="fill:#ffffff"
       id="path3095"
       d="m 311.40726,57.756622 c 0.5983,-2.446065 2.04882,-4.65748 4.09164,-6.144766 0.49994,-0.363978 1.0599,-0.637398 1.58984,-0.956097 2.7661,-1.182542 5.97538,-2.06888 8.94363,-1.016995 0.65209,0.231089 1.23353,0.62683 1.8503,0.940245 0.56542,0.601479 1.2334,1.120885 1.69625,1.804439 2.10661,3.111126 2.0473,8.551179 2.18734,12.181483 -0.10475,4.827894 -1.01052,9.775515 -3.35271,14.058571 -0.46923,0.858046 -1.05493,1.647056 -1.58239,2.470585 -2.49773,3.046987 -5.82742,5.999685 -9.95051,6.383752 -0.78394,0.07303 -1.57397,-0.04708 -2.36096,-0.07061 -0.72396,-0.217069 -1.48352,-0.339117 -2.17188,-0.651207 -3.6955,-1.675472 -4.61777,-5.048785 -5.25867,-8.690275 -0.34105,-4.968252 1.94734,-7.7462 5.32471,-11.011352 0.68408,-0.500298 1.34456,-1.034586 2.05225,-1.500894 0.91365,-0.602022 3.30772,-1.917006 4.28476,-2.48529 2.03091,-1.181252 4.03747,-2.403168 6.02729,-3.65193 3.15456,-1.743997 6.00397,-4.002553 8.67958,-6.404837 2.29391,-1.977492 4.74488,-3.556872 7.67095,-1.060575 1.36839,1.167406 0.97164,3.20367 0.91542,4.653543 -0.89355,4.643232 -1.92817,9.259186 -2.94918,13.876712 -0.79903,4.124593 -1.57051,8.349506 -1.34241,12.566308 -0.4601,-0.192336 0.57654,1.659345 0.8232,1.249708 0.21868,-0.363148 -0.56283,-0.272515 0.21989,-0.819198 2.59208,-1.409528 3.45194,-2.840502 4.35576,-5.549017 0.20556,-2.069923 0.37332,-3.001883 -1.34244,-4.224266 -0.81931,-0.55141 -1.58903,-0.594279 -2.52255,-0.536162 -4.54568,0.0075 -4.55622,-6.421109 -0.0105,-6.428563 l 0,0 c 2.62004,0.05784 4.66749,0.515827 6.79861,2.155167 0.47369,0.450608 0.99655,0.854616 1.42106,1.351826 2.39799,2.808646 2.48521,6.385421 1.71634,9.826084 -1.77039,4.829464 -3.65803,7.250012 -8.36181,9.496388 -1.82786,0.501767 -2.62436,0.971642 -4.58549,0.444834 -3.13038,-0.840896 -4.50071,-3.769633 -4.93489,-6.695913 -0.16229,-4.782055 0.50252,-9.55104 1.48841,-14.225563 0.97066,-4.386993 1.93037,-8.77519 2.83435,-13.175975 0.47241,-0.685626 -0.18881,0.08938 0.84939,0.497109 0.81216,0.318956 1.6999,0.421114 2.56835,0.50563 0.11126,0.01083 0.35175,-0.253714 0.24206,-0.232124 -0.20789,0.04092 -0.39036,0.172295 -0.56291,0.295275 -0.35742,0.254752 -0.67992,0.555242 -1.01989,0.832864 -2.96412,2.616005 -6.06383,5.130224 -9.53618,7.047189 -3.73901,2.342544 -7.61193,4.462613 -11.32952,6.831207 -1.54545,1.467307 -3.42083,2.999638 -3.43467,5.307798 0.21466,1.378111 0.20339,3.244607 1.5723,3.994996 2.61838,0.591216 4.85831,-1.652795 6.45872,-3.435025 0.3728,-0.545347 0.7925,-1.061439 1.1184,-1.636042 1.90884,-3.365428 2.63814,-7.297505 2.76385,-11.116928 -0.081,-2.172339 -0.14161,-4.344749 -0.45695,-6.499446 -0.0968,-0.661212 -0.36757,-1.301434 -0.37351,-1.969663 -7.3e-4,-0.08194 0.0799,-0.143117 0.1198,-0.214676 -0.94833,-1.257165 -3.19054,-0.194263 -4.37259,0.123274 -1.51259,0.734981 -2.44069,1.855645 -2.75312,3.541298 -1.43748,4.312417 -7.53616,2.279524 -6.09868,-2.032893 z"
       inkscape:connector-curvature="0"
       transform="translate(0,852.36218)" />
    <path
       style="fill:#ffffff"
       id="path3097"
       d="m 364.30703,53.671949 c -1.4888,3.738383 -2.30343,7.683241 -3.21782,11.587658 -0.18712,0.889928 -0.36361,1.782157 -0.56136,2.669783 -0.61991,2.782614 -0.7293,2.910727 -1.28495,5.678131 -0.55499,2.764086 -0.9121,5.559988 -1.40636,8.335208 -0.7745,3.489694 -1.14907,7.041954 -1.66008,10.57302 -0.65505,4.49824 -7.01653,3.571852 -6.36147,-0.926389 l 0,0 c 0.52788,-3.598173 0.90246,-7.220694 1.69325,-10.777581 0.51215,-2.85517 0.88138,-5.729753 1.45376,-8.574261 0.60617,-3.01239 0.62028,-2.692789 1.27524,-5.632784 0.20826,-0.934858 0.39525,-1.87433 0.59287,-2.811495 0.95982,-4.095421 1.82908,-8.228716 3.37824,-12.154183 1.43747,-4.312417 7.53615,-2.279524 6.09868,2.032893 z"
       inkscape:connector-curvature="0"
       transform="translate(0,852.36218)" />
    <path
       style="fill:#ffffff"
       id="path3099"
       d="m 377.5,54.254955 c -0.37944,4.187001 -1.51263,8.247483 -2.53403,12.309903 -0.53709,2.12533 -0.90782,4.288639 -1.1829,6.462252 -0.18223,1.440003 -0.39038,2.722769 0.0418,4.114459 0.0827,0.05306 0.15392,0.187276 0.24807,0.15919 0.0248,-0.0074 0.45786,-0.750424 0.49953,-0.786219 0.24486,-0.210342 0.52675,-0.373265 0.79013,-0.559897 0.39532,-0.345708 0.79064,-0.691415 1.18596,-1.037123 3.66391,-3.603127 5.76977,-8.20865 7.63917,-12.901832 1.36951,-3.275939 1.92932,-6.761336 2.53764,-10.229927 0.0548,3.40947 -0.41469,0.315389 5.77557,2.09461 0.25758,0.07403 -0.19906,0.498267 -0.27892,0.754103 -0.13111,0.420023 -0.25181,0.84372 -0.35347,1.271823 -0.32177,1.354882 -0.58782,2.722477 -0.9,4.079597 -0.98329,5.511305 -1.73812,11.06392 -2.54251,16.605948 -0.22542,1.760741 -0.44146,3.52221 -0.70153,5.278172 -0.66829,4.496292 -7.02701,3.551179 -6.35872,-0.945114 l 0,0 c 0.26093,-1.74858 0.46935,-3.503833 0.6984,-5.256846 0.83034,-5.715805 1.60119,-11.444295 2.63968,-17.124484 0.47908,-2.079004 0.83968,-4.204381 1.5231,-6.229845 0.14514,-0.430159 0.0565,-1.183529 0.50297,-1.265682 2.01154,-0.370118 4.17265,-0.529809 6.13577,0.04418 0.58096,0.169864 0.12752,1.203837 0.19128,1.805755 -0.68683,3.903129 -1.36165,7.816005 -2.89887,11.501198 -2.371,5.926913 -4.87251,11.073567 -9.59875,15.542285 -1.73577,1.318193 -2.76848,2.388681 -4.96372,2.919708 -2.78088,0.672694 -5.39703,-0.13463 -7.13894,-2.432396 -0.43016,-0.567417 -0.61034,-1.286649 -0.91551,-1.929974 -0.12469,-0.685071 -0.31363,-1.361516 -0.37408,-2.055214 -0.32021,-3.674394 0.89042,-7.85949 1.56443,-11.446785 0.89447,-3.555057 1.86531,-7.099163 2.33986,-10.74184 0,-4.545686 6.42857,-4.545686 6.42857,0 z"
       inkscape:connector-curvature="0"
       transform="translate(0,852.36218)" />
    <path
       style="fill:#ffffff"
       id="path3101"
       d="m 382.1032,20.35472 c 2.27675,-1.104255 4.76831,-1.572982 7.23655,-2.018692 4.47583,-0.793809 5.59845,5.535983 1.12261,6.329792 l 0,0 c -1.86186,0.322801 -3.75391,0.641664 -5.48422,1.438789 -4.06578,2.032893 -6.94073,-3.716996 -2.87494,-5.749889 z"
       inkscape:connector-curvature="0"
       transform="translate(0,852.36218)" />
    <path
       style="fill:#ffffff"
       id="path3103"
       d="m 91.449886,106.52909 c -1.063676,4.484 -2.171646,8.96164 -3.287413,13.43465 -2.613411,9.71299 -4.684974,19.5521 -6.952127,29.34726 -1.516738,7.58508 -3.511195,15.06662 -5.675153,22.4897 -0.227539,0.77897 -0.435524,1.56391 -0.682615,2.3369 -1.295172,4.05174 -0.276896,0.45075 -1.409847,4.17707 -0.443427,1.45844 -0.810378,2.92881 -1.30137,4.37266 -1.480362,4.29788 -7.558485,2.20433 -6.078123,-2.09355 l 0,0 c 0.492069,-1.40308 0.832443,-2.84628 1.266324,-4.26801 1.665594,-5.45777 -0.274995,1.10197 1.352311,-3.99065 0.247,-0.77298 0.455058,-1.55787 0.682587,-2.3368 2.137911,-7.30421 4.086942,-14.67239 5.582976,-22.13732 2.276544,-9.8302 4.354996,-19.70507 6.977594,-29.45316 1.155955,-4.63406 2.283824,-9.27506 3.426178,-13.91164 1.437472,-4.31242 7.53615,-2.27953 6.098678,2.03289 z"
       inkscape:connector-curvature="0"
       transform="translate(0,852.36218)" />
    <path
       style="fill:#ffffff"
       id="path3105"
       d="m 93.214286,104.59672 c -0.179284,6.042 0.275919,12.06203 0.641046,18.08776 0.260067,9.48727 1.621861,18.88277 3.008256,28.25524 1.295858,7.37542 2.58642,14.75304 3.738662,22.1526 0.46955,2.47458 0.56145,5.0002 0.88488,7.49169 0.064,0.49294 0.1537,0.98327 0.26938,1.46671 0.0445,0.18613 0.30563,0.70008 0.20949,0.53459 -0.15808,-0.27211 -0.26442,-0.57114 -0.39662,-0.85671 -1.623272,0.0351 -3.246543,0.0701 -4.869814,0.1052 2.368873,-3.87965 7.855534,-0.52956 5.486654,3.35009 l 0,0 c -1.78372,0.29786 -3.567449,0.59572 -5.351175,0.89357 -0.325878,-0.49641 -0.718821,-0.95478 -0.977633,-1.48922 -1.348575,-2.78481 -0.761642,-7.49628 -1.607258,-10.5073 -1.153546,-7.41574 -2.451392,-14.80846 -3.745939,-22.20053 -1.413449,-9.55541 -2.793878,-19.13532 -3.065685,-28.80713 -0.372925,-6.15492 -0.830456,-12.30517 -0.652816,-18.47656 0,-4.54569 6.428572,-4.54569 6.428572,0 z"
       inkscape:connector-curvature="0"
       transform="translate(0,852.36218)" />
    <path
       style="fill:#ffffff"
       id="path3107"
       d="m 123.96175,108.54957 c -3.15134,6.65624 -4.9636,13.80469 -6.5755,20.95713 -2.23956,10.26221 -3.44555,20.76633 -3.65988,31.26497 0.39598,4.95801 0.33879,10.3493 2.64249,14.9105 0.23977,0.47473 0.57372,0.89569 0.86058,1.34354 0.34328,0.26431 1.35154,1.64526 2.03242,1.31043 0.0691,-0.034 -0.0606,-0.15195 -0.0431,-0.22695 0.0229,-0.0984 0.41558,-0.56644 0.42267,-0.57533 0.3903,-0.54106 1.02659,-1.40051 1.29894,-1.9216 0.46447,-0.88866 1.2938,-3.26351 1.55429,-4.02375 1.18548,-3.45982 0.90787,-2.69679 1.8424,-6.40874 1.98199,-8.15359 3.17729,-16.48791 4.19012,-24.81149 0.74425,-6.39349 0.98256,-12.83174 1.10864,-19.26277 -0.14284,-3.11809 -0.62721,-6.18456 -1.75772,-9.09825 -0.72041,-1.54759 -1.99979,-3.25563 -3.89576,-3.17264 -0.16574,0.0588 -0.33148,0.11763 -0.49722,0.17644 -4.51562,0.52199 -5.25383,-5.86406 -0.73821,-6.38605 l 0,0 c 0.74668,-0.0467 1.49335,-0.0933 2.24003,-0.13998 0.70478,0.14725 1.42968,0.21895 2.11434,0.44175 3.24252,1.05522 5.46583,3.81155 6.79463,6.81939 1.35826,3.69676 2.07505,7.53944 2.16723,11.48576 -0.13118,6.64879 -0.38222,13.30467 -1.15464,19.91433 -1.04969,8.59426 -2.28595,17.19899 -4.34082,25.61651 -1.07285,4.1889 -2.14738,8.65076 -4.30296,12.45196 -0.95195,1.67869 -1.56211,2.1569 -2.87004,3.53829 -1.52235,0.97263 -2.10763,1.59011 -4.00339,1.78242 -3.28573,0.33332 -5.7727,-1.78128 -7.66508,-4.18699 -0.44178,-0.75895 -0.94678,-1.48448 -1.32534,-2.27687 -2.57831,-5.39683 -2.74954,-11.59252 -3.10155,-17.4381 0.24599,-10.9287 1.46816,-21.86139 3.81647,-32.54361 1.73389,-7.65477 3.69747,-15.30145 7.0961,-22.41524 2.0329,-4.06579 7.78279,-1.19084 5.74989,2.87494 z"
       inkscape:connector-curvature="0"
       transform="translate(0,852.36218)" />
    <path
       style="fill:#ffffff"
       id="path3109"
       d="m 150.35714,111.91046 c 0,7.27202 0,14.54405 0,21.81607 0,8.95299 0,17.90597 0,26.85896 0,5.50095 0,11.0019 0,16.50285 0,1.62033 0,3.24066 0,4.86099 0,0.37509 0,0.75018 0,1.12527 0,0.20736 0.0843,0.43261 0,0.62207 -0.41966,0.94347 -0.99051,1.81215 -1.48577,2.71822 -1.41701,-0.11435 -2.83402,-0.22871 -4.25103,-0.34306 -3.61915,-2.75047 0.2706,-7.86871 3.88975,-5.11824 l 0,0 c -1.14584,0.0917 -2.29168,0.18346 -3.43751,0.27519 -0.38134,0.82263 -0.66634,1.69719 -1.14401,2.46789 -0.10923,0.17625 0,-0.41471 0,-0.62207 0,-1.99542 0,-3.99084 0,-5.98626 0,-5.50095 0,-11.0019 0,-16.50285 0,-8.95299 0,-17.90597 0,-26.85896 0,-7.27202 0,-14.54405 0,-21.81607 0,-4.54569 6.42857,-4.54569 6.42857,0 z"
       inkscape:connector-curvature="0"
       transform="translate(0,852.36218)" />
    <path
       style="fill:#ffffff"
       id="path3111"
       d="m 150.85441,106.07143 c 4.56467,0.20592 9.0707,-0.51425 13.56072,-1.2275 0.90781,-0.13919 1.81562,-0.27838 2.72344,-0.41757 4.49319,-0.68883 5.46735,5.6655 0.97416,6.35434 l 0,0 c -0.89644,0.13741 -1.79289,0.27483 -2.68933,0.41224 -4.82288,0.76571 -9.66727,1.51098 -14.56899,1.30706 -4.54569,0 -4.54569,-6.42857 0,-6.42857 z"
       inkscape:connector-curvature="0"
       transform="translate(0,852.36218)" />
    <path
       style="fill:#ffffff"
       id="path3113"
       d="m 186.6184,115.86704 c -2.75207,3.88497 -3.9506,8.66335 -5.28129,13.16711 -2.31755,8.75938 -3.30496,17.82528 -3.41739,26.86859 0.0707,4.99864 0.17519,10.30249 2.53219,14.85514 0.26428,0.51046 0.61581,0.9708 0.92372,1.4562 0.59202,0.56381 1.33155,1.73921 2.33212,1.6092 0.20822,-0.0271 0.50116,-0.68821 0.56769,-0.79383 3.44539,-4.24429 4.99445,-9.67139 6.7546,-14.75658 2.78083,-8.06223 4.99545,-16.27395 6.29994,-24.70153 0.62332,-4.90605 0.7621,-10.01916 -0.46004,-14.85597 -0.18861,-0.74648 -0.47437,-1.465 -0.71156,-2.1975 -0.57881,-1.30636 -2.39027,-5.3657 -4.44956,-4.47966 -0.0705,0.1124 -0.11467,0.24661 -0.21164,0.33721 -0.25557,0.23878 -0.57373,0.40334 -0.83266,0.63846 -0.62557,0.56806 -1.76938,1.8867 -2.26943,2.44548 -3.04655,3.37368 -7.81767,-0.9348 -4.77111,-4.30849 l 0,0 c 2.33187,-2.56357 4.56124,-4.94302 8.15752,-5.54082 0.80992,0.0652 1.63936,0.007 2.42976,0.19573 4.20881,1.00312 6.57609,5.11086 8.08119,8.78861 0.29749,0.97263 0.65259,1.92947 0.89248,2.91788 1.3502,5.56317 1.22796,11.41212 0.49718,17.04745 -1.37664,8.80473 -3.66283,17.39417 -6.5777,25.81757 -2.1793,6.28509 -4.14747,13.04279 -9.01773,17.82912 -1.79372,1.13979 -2.22399,1.74622 -4.39522,1.87611 -3.36296,0.20118 -5.91106,-2.05092 -7.81181,-4.53367 -0.45037,-0.7643 -0.95805,-1.49761 -1.3511,-2.2929 -2.666,-5.3944 -3.00195,-11.5393 -3.03678,-17.44261 0.14694,-9.63061 1.17596,-19.28175 3.6813,-28.60434 1.52008,-5.12334 2.95988,-10.49156 6.09643,-14.90789 2.5215,-3.78224 7.87039,-0.21631 5.3489,3.56593 z"
       inkscape:connector-curvature="0"
       transform="translate(0,852.36218)" />
    <path
       style="fill:#ffffff"
       id="path3115"
       d="m 221.78571,111.73958 c 0,7.17897 0,14.35794 0,21.53692 0,10.85666 0,21.71333 0,32.57 0,8.16146 0,16.32293 0,24.48439 -0.003,3.94652 0.61591,1.97241 -6.47917,2.26162 -1.23188,-4.37558 4.95614,-6.11772 6.18801,-1.74214 l 0,0 c -6.83962,1.64715 -6.1199,3.35888 -6.13741,-0.51948 0,-8.16146 0,-16.32293 0,-24.48439 0,-10.85667 0,-21.71334 0,-32.57 0,-7.17898 0,-14.35795 0,-21.53692 0,-4.54569 6.42857,-4.54569 6.42857,0 z"
       inkscape:connector-curvature="0"
       transform="translate(0,852.36218)" />
    <path
       style="fill:#ffffff"
       id="path3117"
       d="m 202.45386,100.35714 c 5.40117,0.0251 10.80204,-0.11005 16.19689,0.17563 5.32204,0.41342 10.64249,0.84197 15.97497,1.09587 1.69157,0.0772 3.38455,0.10891 5.07742,0.13863 4.54498,0.0802 4.43163,6.50772 -0.11335,6.42757 l 0,0 c -1.75722,-0.0311 -3.51454,-0.0644 -5.2704,-0.14493 -5.34667,-0.25553 -10.68182,-0.67877 -16.01775,-1.09806 -5.27735,-0.29546 -10.56375,-0.12548 -15.84778,-0.16614 -4.54568,0 -4.54568,-6.42857 0,-6.42857 z"
       inkscape:connector-curvature="0"
       transform="translate(0,852.36218)" />
    <path
       style="fill:#ffffff"
       id="path3119"
       d="m 246.07143,115.85441 c -0.0142,6.99812 0.0923,13.99489 -0.17326,20.98871 -0.60598,10.18241 -1.53236,20.34211 -2.13547,30.52704 -0.0132,1.79786 -0.17229,3.93636 0.21992,5.76265 0.0515,0.2397 0.48209,0.85394 0.35848,0.64221 -0.27973,-0.47914 -0.4614,-1.0271 -0.82689,-1.44453 -0.23726,-0.27098 -0.96226,-0.19888 -0.92575,-0.55719 0.0469,-0.46002 0.7148,-0.58679 1.07219,-0.88019 5.60245,-4.79813 10.41275,-10.42584 15.36556,-15.87032 0.68519,-0.81001 1.37039,-1.62002 2.05558,-2.43003 2.93794,-3.46868 7.8434,0.6862 4.90545,4.15488 l 0,0 c -0.73523,0.86702 -1.47046,1.73403 -2.2057,2.60104 -5.26892,5.79197 -10.38208,11.79452 -16.42688,16.80569 -1.93408,1.26021 -3.57975,2.85002 -6.25743,2.13303 -4.73482,-1.26783 -3.68936,-7.90248 -3.75185,-11.29738 0.60088,-10.14065 1.51846,-20.25654 2.12897,-30.39415 0.26982,-6.91106 0.1471,-13.82599 0.16851,-20.74146 0,-4.54569 6.42857,-4.54569 6.42857,0 z"
       inkscape:connector-curvature="0"
       transform="translate(0,852.36218)" />
    <path
       style="fill:#ffffff"
       id="path3121"
       d="m 270.35714,105.68353 c 0,0.42843 0.0236,0.85751 0,1.28529 -0.0542,0.98328 -0.34094,3.49927 -0.42326,4.41852 -0.31223,3.48659 -0.46894,6.97557 -0.6148,10.47229 -0.13346,10.40987 -0.79982,20.79901 -1.25149,31.19752 -0.10528,4.71889 -0.42066,9.43977 -0.41782,14.16138 0.002,3.16532 0.28281,6.31917 0.3388,9.48339 -0.0487,2.45085 0.10247,1.26939 -0.41914,3.54863 -1.32209,4.34918 -7.47276,2.47946 -6.15067,-1.86972 l 0,0 c 0.56798,0.3562 0.10433,0.10742 0.14212,-1.57211 -0.0501,-3.24963 -0.33627,-6.48445 -0.33802,-9.73611 -0.003,-4.76601 0.31562,-9.53126 0.42221,-14.29451 0.45178,-10.39515 1.11757,-20.78082 1.25106,-31.18733 0.15223,-3.62449 0.31863,-7.23997 0.64218,-10.85395 0.11259,-1.25769 0.31875,-2.50731 0.39026,-3.768 0.0243,-0.42774 0,-0.85686 0,-1.28529 0,-4.54569 6.42857,-4.54569 6.42857,0 z"
       inkscape:connector-curvature="0"
       transform="translate(0,852.36218)" />
    <path
       style="fill:#ffffff"
       id="path3123"
       d="m 286.07143,104.42584 c 0,6.18139 0,12.36279 0,18.54419 -0.3555,10.30856 -0.83873,20.60982 -1.58486,30.89738 -0.66779,8.24507 -0.98628,16.51151 -1.18677,24.77933 -0.053,1.33204 0.007,2.65797 -0.17445,3.97863 -1.02183,4.42935 -7.28587,2.98426 -6.26405,-1.44509 l 0,0 c -0.0219,0.18997 -0.0516,0.76062 -0.0656,0.56991 -0.0799,-1.08384 0.28132,-2.178 0.0774,-3.25945 0.20338,-8.37094 0.52646,-16.74046 1.20173,-25.08844 0.73518,-10.13289 1.2091,-20.27899 1.56801,-30.43227 0,-6.1814 0,-12.3628 0,-18.54419 0,-4.545689 6.42857,-4.545689 6.42857,0 z"
       inkscape:connector-curvature="0"
       transform="translate(0,852.36218)" />
    <path
       style="fill:#ffffff"
       id="path3125"
       d="m 282.28298,107.5 c 4.59682,-0.0418 9.16943,-0.87417 13.66331,-1.78923 3.27991,-0.43911 8.42307,-2.49285 11.67303,-1.52411 0.83682,0.24944 1.57512,0.75427 2.36268,1.13141 0.61024,0.83641 1.40752,1.56431 1.83072,2.50924 0.75111,1.67711 0.76243,4.34114 0.77471,6.11975 0.027,3.90751 -0.19355,7.82961 -0.31549,11.73411 -0.0974,5.99757 -0.41934,11.99893 -0.37637,17.9987 0.0186,2.59183 0.20858,6.11609 0.3291,8.70136 0.43502,7.47177 0.55701,14.95174 1.2835,22.40264 0.47531,4.20071 0.8639,8.40867 1.04847,12.63241 0.0535,1.40927 0.029,0.79636 0.0719,1.83878 0.18693,4.54184 -6.23621,4.8062 -6.42313,0.26436 l 0,0 c -0.0432,-1.05123 -0.0189,-0.44321 -0.0713,-1.82411 -0.17742,-4.10919 -0.56416,-8.20214 -1.02432,-12.28894 -0.73389,-7.55915 -0.8733,-15.14617 -1.30677,-22.72656 -0.13461,-2.90248 -0.31485,-6.18558 -0.33543,-9.08901 -0.0428,-6.03698 0.28053,-12.07553 0.37889,-18.1103 0.0192,-0.61613 0.2319,-7.38571 0.25251,-8.19353 0.027,-1.05712 0.0562,-2.11433 0.062,-3.17178 0.004,-0.7439 -0.0344,-1.48759 -0.0322,-2.23149 9.4e-4,-0.32557 -0.0709,-0.67026 0.0415,-0.97582 0.0468,-0.12719 0.25004,-0.10462 0.37506,-0.15693 0.39654,-0.25953 0.63021,-0.31719 -0.48037,-0.34633 -2.02144,-0.053 -4.14039,0.60097 -6.09379,1.01494 -0.91732,0.1944 -1.83338,0.39474 -2.75008,0.59211 -4.91615,0.98893 -9.90998,1.88841 -14.93816,1.9169 -4.54569,0 -4.54569,-6.42857 0,-6.42857 z"
       inkscape:connector-curvature="0"
       transform="translate(0,852.36218)" />
  </g>
</svg>
