<?xml version="1.0" encoding="UTF-8" standalone="no"?>
<!-- Created with Inkscape (http://www.inkscape.org/) -->

<svg
   xmlns:dc="http://purl.org/dc/elements/1.1/"
   xmlns:cc="http://creativecommons.org/ns#"
   xmlns:rdf="http://www.w3.org/1999/02/22-rdf-syntax-ns#"
   xmlns:svg="http://www.w3.org/2000/svg"
   xmlns="http://www.w3.org/2000/svg"
   xmlns:sodipodi="http://sodipodi.sourceforge.net/DTD/sodipodi-0.dtd"
   xmlns:inkscape="http://www.inkscape.org/namespaces/inkscape"
   width="744.09448819"
   height="1052.3622047"
   id="svg2"
   version="1.1"
   inkscape:version="0.48.4 r9939"
   sodipodi:docname="masted-boy.svg">
  <defs
     id="defs4" />
  <sodipodi:namedview
     id="base"
     pagecolor="#ffffff"
     bordercolor="#666666"
     borderopacity="1.0"
     inkscape:pageopacity="0.0"
     inkscape:pageshadow="2"
     inkscape:zoom="0.98994949"
     inkscape:cx="375"
     inkscape:cy="520"
     inkscape:document-units="px"
     inkscape:current-layer="layer1"
     showgrid="false"
     inkscape:window-width="1366"
     inkscape:window-height="684"
     inkscape:window-x="-8"
     inkscape:window-y="-8"
     inkscape:window-maximized="1" />
  <metadata
     id="metadata7">
    <rdf:RDF>
      <cc:Work
         rdf:about="">
        <dc:format>image/svg+xml</dc:format>
        <dc:type
           rdf:resource="http://purl.org/dc/dcmitype/StillImage" />
        <dc:title></dc:title>
      </cc:Work>
    </rdf:RDF>
  </metadata>
  <g
     inkscape:label="Layer 1"
     inkscape:groupmode="layer"
     id="layer1">
    <path
       style="fill:#ff5555"
       id="path3001"
       d="m 244.96199,490.67387 c 0,8.07027 0,16.14053 0,24.2108 0,12.15045 0,24.3009 0,36.45136 0.28129,7.99461 -0.2477,15.95126 -1.25335,23.8769 -0.10259,0.51226 0.21416,1.51356 -0.30777,1.5368 -3.06757,0.13659 -6.32428,0.0997 -9.14399,-1.11593 -0.90288,-0.38927 -0.20106,-1.95676 -0.25942,-2.93825 -0.21302,-3.58248 -0.16512,-7.19092 -0.1883,-10.77761 -0.045,-8.38457 0.98327,-16.72951 1.49654,-25.09254 0.38503,-6.60733 0.50613,-13.22583 0.56101,-19.84288 0.0204,-5.07803 -0.2254,-9.84325 0.65977,-14.86912 0.53999,-3.84562 2.61636,-7.72249 7.23211,-7.46507 3.20794,0.17891 4.25393,1.99078 6.21241,4.01337 4.55221,6.93616 7.49834,14.75538 10.41216,22.47895 2.97114,6.89286 4.55167,14.22105 6.65727,21.38997 1.48931,4.59004 1.17353,0.0976 -3.34298,-0.47246 -1.23874,-0.15636 -2.11382,1.62163 -3.36203,1.65139 -0.53552,0.0128 0.18716,-1.05516 0.30176,-1.57842 0.21617,-0.98702 0.46024,-1.96772 0.69035,-2.95157 1.44568,-8.04983 4.10933,-15.79995 6.61829,-23.56301 2.86119,-8.03832 5.78543,-16.04879 8.92155,-23.98419 1.09341,-2.73895 2.68488,-10.35731 7.57439,-9.19461 4.73248,1.12535 4.44305,4.21791 4.80859,7.38467 0.52577,9.26067 -0.4976,18.51181 -1.01577,27.75206 -0.23683,7.36372 -0.75359,14.73777 -0.70239,22.1092 0.0209,3.01276 0.25154,5.80482 0.45349,8.80184 0.61412,5.9241 0.54074,11.91674 1.76232,17.75754 0.39539,1.7173 0.67404,3.45719 1.02827,5.18281 0.0316,0.15414 -0.0591,-0.30912 -0.0887,-0.46367 2.57475,5.89043 -5.75558,9.53167 -8.33033,3.64124 l 0,0 c -0.75337,-2.11965 -1.03751,-4.32542 -1.51269,-6.5214 -1.27906,-6.25717 -1.34252,-12.64264 -1.93,-18.99007 -0.23316,-3.51352 -0.4476,-6.01996 -0.47196,-9.58843 -0.0511,-7.48124 0.47329,-14.96504 0.71489,-22.4384 0.49443,-8.80595 1.4692,-17.62007 1.03651,-26.4455 -0.09,-3.54318 -0.3544,0.90922 3.81615,0.89923 1.43402,-0.003 2.39616,-1.5862 3.67012,-2.24458 0.19345,-0.1 -0.27509,0.34252 -0.36944,0.53878 -0.29797,0.61985 -0.5559,1.25873 -0.80317,1.90048 -0.41575,1.07904 -0.79018,2.17355 -1.18527,3.26032 -3.06528,7.75597 -5.92305,15.58504 -8.72604,23.43937 -2.43336,7.52414 -5.02571,15.03247 -6.41656,22.8377 -0.7735,3.30413 -1.0816,9.04589 -5.66683,9.86195 -4.29164,0.7638 -5.31704,-3.40378 -6.19549,-6.02045 -2.04163,-6.95229 -3.55727,-14.06219 -6.44157,-20.74562 -2.55677,-6.79153 -5.16101,-13.61528 -8.8915,-19.86787 -0.0404,-0.18965 -0.26861,-0.44296 -0.12121,-0.56895 0.73318,-0.62666 2.41367,0.6649 2.6589,-1.1413 0.3074,-0.29393 0.40294,-0.75245 0.54784,-1.15231 0.0524,-0.14447 -0.1777,0.25073 -0.26655,0.3761 -0.10978,0.57722 -0.21957,1.15443 -0.32935,1.73165 -0.11708,0.63205 -0.46246,2.37061 -0.49866,3.04315 -0.18406,3.42026 0.15119,6.8686 -0.0176,10.29089 -0.0566,6.77787 -0.18221,13.55718 -0.57782,20.32501 -0.50224,8.15804 -1.50151,16.29883 -1.4796,24.47639 0.0217,3.39638 0.0462,6.78958 0.16509,10.18419 0.019,0.54328 0.5849,1.45837 0.0689,1.62938 -2.75747,0.91383 -5.72889,1.0735 -8.63072,1.20802 -0.2789,0.0129 0.12432,-0.54437 0.18648,-0.81656 0.96436,-7.5453 1.45859,-15.11667 1.18054,-22.72858 0,-12.15046 0,-24.30091 0,-36.45136 0,-8.07027 0,-16.14053 0,-24.2108 0,-6.42857 9.09137,-6.42857 9.09137,0 z"
       inkscape:connector-curvature="0" />
    <path
       style="fill:#ff5555"
       id="path3003"
       d="m 328.79626,522.74458 c -0.99764,-3.35463 -2.19401,-6.71519 -3.87792,-9.79174 -1.2247,-2.76911 -2.12532,-3.54708 -4.92192,-4.15881 -1.43124,-0.12254 -3.19494,-0.80069 -4.4969,0.14166 -0.45463,0.32907 -0.78266,0.80476 -1.18406,1.197 -2.58548,3.45455 -3.93708,7.60683 -4.98605,11.73844 -1.18455,6.99305 -1.8384,14.13838 -1.48251,21.22975 0.62139,5.69499 2.06534,11.18408 4.95235,16.15124 2.0732,2.46298 2.42601,1.67998 4.54312,-0.11625 4.3209,-4.92505 6.52258,-11.31565 9.0307,-17.27606 2.5934,-6.06717 3.67756,-12.50583 4.22368,-19.03141 0.0667,-2.5953 0.38389,-5.2106 0.2809,-7.81041 -0.0446,-1.1246 -0.20366,-2.40059 -0.69596,-2.15006 -0.21309,3.45905 4.84052,1.17366 4.95911,1.73471 0.11334,0.53619 -1.27777,4.7419 -1.44131,5.36269 -1.27874,6.17921 -1.56307,12.49682 -1.77247,18.78501 0.0368,2.7535 -0.23742,5.52355 -0.11653,8.277 0.0899,2.04874 0.54075,4.12451 0.8588,6.14546 0.1739,3.14834 1.19126,6.11223 1.68125,9.19865 0.87593,6.36861 -8.13065,7.60738 -9.00659,1.23876 l 0,0 c -0.13692,-1.61597 0.0351,-0.1959 -0.58779,-2.67432 -0.68769,-2.73646 -0.42693,-1.72314 -0.76889,-4.28802 -0.0918,-0.68867 -0.19932,-1.37516 -0.29898,-2.06273 -0.8429,-5.36391 -1.25869,-10.70275 -0.84755,-16.1391 0.23472,-6.97076 0.57527,-13.97525 2.07106,-20.81087 1.06753,-4.00334 2.70029,-12.29396 8.4655,-11.92307 1.58991,0.10228 2.88087,1.36148 4.32131,2.04222 0.4067,0.692 0.90589,1.33739 1.22011,2.07599 1.84381,4.33413 0.80585,9.23475 0.73683,13.76705 -0.64221,7.47181 -1.93736,14.84382 -4.90279,21.7886 -3.17971,7.55639 -6.03994,15.68946 -12.31818,21.28134 -2.61188,1.61877 -3.48547,2.5378 -6.72125,2.9077 -4.69295,0.53647 -8.34703,-2.21 -10.83624,-5.86279 -3.45793,-6.27581 -5.4913,-13.03997 -6.11226,-20.20018 -0.33037,-8.00022 0.28603,-16.05422 1.76501,-23.9258 1.5483,-5.8592 3.57976,-11.73795 7.77192,-16.27179 0.6527,-0.55021 1.25444,-1.16731 1.95811,-1.65063 3.669,-2.5201 7.81672,-2.59927 12.02478,-1.66848 5.28713,1.47945 8.28804,3.64619 10.67041,8.70732 1.84172,3.56096 3.36172,7.31054 4.46603,11.16699 2.03289,6.09867 -6.59194,8.97362 -8.62483,2.87494 z"
       inkscape:connector-curvature="0" />
    <path
       style="fill:#ff5555"
       id="path3007"
       d="m 361.40965,491.50372 c -1.8764,-2.18259 -4.16502,-3.46763 -6.86431,-4.34051 -0.64232,-0.241 -6.06488,-1.23404 -5.98372,0.14467 0.0271,0.0721 0.0819,0.13926 0.0812,0.21626 -0.009,0.87383 -0.35889,1.85642 -0.45254,2.72357 -0.14023,1.29846 -0.15029,1.99251 -0.21117,3.31835 -0.27326,2.86116 0.568,4.22943 2.56978,6.1523 2.60556,1.73071 4.95064,3.83215 7.44497,5.72155 2.74358,2.33982 5.46351,4.67948 7.94074,7.30576 1.93081,2.01385 4.20294,3.81587 5.63637,6.2536 0.38337,0.65197 0.66502,1.35864 0.99752,2.03796 1.39908,2.78816 2.78911,5.60008 3.96336,8.49423 0.83815,3.42175 2.05206,6.72651 2.83963,10.16394 0.78518,4.01828 0.87036,8.12317 0.94376,12.20309 -0.24484,4.20042 -1.3695,8.13671 -3.47093,11.7647 -1.86693,3.15793 -4.46795,5.7136 -7.40665,7.86347 -4.60528,2.75408 -8.65406,3.3176 -13.92034,2.83663 -5.60869,-1.01495 -8.3907,-4.21245 -11.42889,-8.65882 -2.35048,-4.01902 -3.07215,-8.58638 -2.84887,-13.17219 0.84957,-3.75824 1.66248,-4.46483 4.64048,-6.6266 5.58419,-3.18487 10.08828,4.71236 4.50409,7.89723 l 0,0 c 0.10895,-0.18805 0.56,-1.06072 -0.0795,-0.57944 -0.3756,2.47647 0.32034,5.16452 1.33578,7.4193 1.24551,1.91858 2.45912,4.00175 4.76852,4.67298 0.89679,0.0981 1.79314,0.31774 2.6936,0.26287 1.75416,-0.1069 3.50965,-0.6992 5.07284,-1.46555 2.02099,-1.35203 3.69032,-3.15182 4.93784,-5.2335 1.46922,-1.94817 1.66405,-4.49683 2.11211,-6.81929 -0.061,-3.46425 -0.10973,-6.95067 -0.72382,-10.37079 -0.6521,-2.97912 -1.79441,-5.81478 -2.41817,-8.80015 -1.06365,-2.76683 -2.46884,-5.40665 -3.77809,-8.06113 -0.93894,-2.47849 -3.28885,-3.99267 -5.03101,-5.89446 -2.08307,-2.29628 -4.48805,-4.2173 -6.79997,-6.26978 -2.86328,-2.20203 -5.64486,-4.50214 -8.52238,-6.69001 -3.53949,-3.88815 -5.49801,-7.39317 -5.05362,-12.84509 0.24073,-4.81667 0.63068,-9.66296 4.33925,-13.19029 0.77876,-0.48333 1.5028,-1.06869 2.33628,-1.44997 3.75632,-1.71835 8.12001,-0.94066 11.92533,0.0764 4.63981,1.65106 8.43932,3.93019 11.47504,7.89569 3.56593,5.3489 -3.99855,10.39188 -7.56448,5.04299 z"
       inkscape:connector-curvature="0" />
    <path
       style="fill:#ff5555"
       id="path3009"
       d="m 417.46145,563.66438 c -2.99898,3.87497 -5.20529,5.91031 -9.82181,7.82597 -3.9179,1.27761 -8.24521,1.3158 -11.76322,-1.10639 -0.73068,-0.50308 -1.34078,-1.16201 -2.01117,-1.74301 -2.81153,-2.59142 -4.87406,-5.93076 -6.51612,-9.35825 -1.61084,-3.98036 -1.80999,-8.28291 -1.95711,-12.51841 -0.087,-4.07971 -0.0548,-8.16078 -0.0421,-12.24107 0.36375,-3.465 -0.53498,-6.75156 -1.12753,-10.12601 -0.55594,-2.62106 -0.44644,-5.31973 -0.73294,-7.96555 -0.029,-0.26769 -0.5482,-2.4795 -0.57218,-2.5836 -0.95416,-3.78267 -1.26651,-7.6699 -1.4594,-11.55258 -0.15113,-4.06768 -0.14046,-8.13907 -0.14075,-12.20888 0.002,-2.70122 9.4e-4,-1.35092 0.004,-4.05088 0.008,-6.42857 9.09938,-6.41724 9.09137,0.0113 l 0,0 c -0.003,2.69375 -0.002,1.34743 -0.004,4.03893 2.5e-4,3.92155 -0.0108,7.84457 0.12983,11.76421 0.16216,3.35608 0.40921,6.71857 1.24507,9.98671 0.34545,1.54155 0.60517,2.52749 0.78602,4.13948 0.25518,2.27451 0.13163,4.60015 0.60853,6.85525 0.67627,3.88827 1.63211,7.73345 1.2633,11.72002 -0.0124,3.9677 -0.0435,7.93613 0.0368,11.90332 0.10044,3.0197 0.15686,6.10768 1.11836,9.00228 1.0604,2.43321 2.58772,4.76416 4.51892,6.58153 1.11915,1.55556 2.42046,1.48975 4.19215,0.99284 2.61226,-0.91759 3.83922,-2.27988 5.58941,-4.41023 3.56593,-5.34889 11.13041,-0.30591 7.56448,5.04299 z"
       inkscape:connector-curvature="0" />
    <path
       style="fill:#ff5555"
       id="path3011"
       d="m 381.70182,507.27894 c 4.29529,-1.00981 8.69684,-1.39988 13.08978,-1.67811 2.99991,-0.13401 1.50841,-0.0784 4.47449,-0.16748 6.42572,-0.19151 6.69655,8.89583 0.27083,9.08733 l 0,0 c -2.77841,0.0822 -1.38669,0.031 -4.17515,0.15362 -3.84222,0.23934 -7.69376,0.56209 -11.45497,1.42457 -6.23663,1.55916 -8.44161,-7.26077 -2.20498,-8.81993 z"
       inkscape:connector-curvature="0" />
    <path
       style="fill:#ff5555"
       id="path3013"
       d="m 420.36561,528.06287 c 3.12921,0.88706 6.39961,1.0496 9.55847,0.26135 3.21906,-0.68364 5.74484,-2.67434 7.99747,-4.97746 1.90379,-2.38099 2.89514,-5.06258 3.48261,-8.01211 -0.18343,-0.70133 0.22657,-1.94435 -0.45436,-2.45309 -0.0565,-0.0422 -0.14313,0.12557 -0.19607,0.0791 -3.30656,-2.90417 1.05288,0.45227 -1.28471,-1.31046 -2.20615,-0.98477 -4.69844,-1.04767 -7.07293,-1.1828 -2.24162,0.15373 -4.66789,-0.5412 -6.86723,0.1015 -0.60344,0.17633 -1.30746,0.67325 -1.81411,0.98824 -2.29317,1.76729 -3.91027,4.00877 -5.44307,6.43361 -1.2553,2.49915 -1.36571,5.3443 -1.52161,8.0839 0.0189,3.71355 -0.42067,7.49085 0.11404,11.17838 0.49372,3.17814 1.18764,6.43575 2.65143,9.32769 0.94573,2.2026 2.40558,4.08589 4.377,5.45522 2.55639,2.10149 5.60504,2.92859 8.80172,3.43493 1.32798,0.0552 2.12506,-0.73048 3.05266,-1.54714 2.07321,-1.82522 0.68683,-0.3928 2.23654,-2.09236 0.74857,-1.2068 0.42653,-0.57938 0.9683,-1.88113 2.7868,-5.79313 10.97951,-1.852 8.19272,3.94112 l 0,0 c -1.50388,2.95145 -0.64125,1.54513 -2.58684,4.2196 -3.78952,3.86666 -7.60008,6.8287 -13.34839,6.32918 -4.62549,-0.78975 -9.06209,-2.1505 -12.78448,-5.14084 -3.06723,-2.39617 -5.61578,-5.27441 -7.15879,-8.89786 -1.69841,-3.83308 -2.92072,-7.86714 -3.42553,-12.0409 -0.46786,-4.25704 -0.28797,-8.54347 -0.16604,-12.82018 0.26105,-4.31438 0.70567,-8.66563 2.95257,-12.47014 2.38483,-3.66029 5.00602,-7.07628 8.72937,-9.49164 0.79779,-0.41104 1.56234,-0.89427 2.39336,-1.23313 3.57948,-1.45955 7.41977,-1.06388 11.18285,-0.95358 4.43984,0.27048 8.93897,0.69912 12.60561,3.48939 3.91006,3.70404 5.37273,6.82409 4.76387,12.31912 -1.01503,4.68188 -2.76492,8.99463 -5.99654,12.6193 -3.56156,3.43814 -7.52096,6.39601 -12.48644,7.39627 -4.84842,0.94277 -9.57131,0.96496 -14.32839,-0.52821 -6.09868,-2.03289 -3.22374,-10.65772 2.87494,-8.62483 z"
       inkscape:connector-curvature="0" />
    <path
       style="fill:#ff5555"
       id="path3015"
       d="m 478.58735,513.72708 c -1.94256,-1.56886 -4.14103,-2.94426 -6.42266,-3.9843 -2.68602,-0.82799 -5.68567,-1.53181 -8.5012,-1.09948 -1.55537,0.30154 -3.3028,0.67821 -3.7902,2.36874 -1.64405,2.25524 -2.16385,4.80605 -2.49393,7.51196 -0.33323,3.72327 -0.31141,7.46671 -0.31727,11.20143 0.25568,3.73237 -0.41481,7.58227 0.22417,11.27816 0.42888,3.21145 1.48514,5.73652 2.91241,8.58721 1.11695,2.4446 2.98574,3.2267 5.44918,3.78162 2.83747,0.53107 5.63142,0.70066 8.34682,-0.36566 2.55793,-0.91142 4.9566,-2.41082 6.90225,-4.31252 1.17599,-1.93199 1.22187,-4.33923 1.3789,-6.53477 0.17795,-3.87281 0.12908,-7.75172 0.11239,-11.62735 -0.0212,-4.05563 -0.031,-8.1113 -0.0365,-12.16697 -0.63569,-3.89294 -1.26544,-7.77751 -1.63843,-11.70625 -0.95447,-3.4149 -1.62531,-6.87276 -2.02096,-10.39446 -0.9676,-3.88401 -1.63051,-7.81586 -2.03157,-11.79582 -0.34985,-4.17456 -0.36895,-8.3667 -0.38871,-12.55292 -0.007,-4.05161 0.003,-8.10322 0.008,-12.15482 0.008,-6.42857 9.09939,-6.41721 9.09137,0.0114 l 0,0 c -0.005,4.0336 -0.0156,8.06721 -0.009,12.10082 0.0182,3.89986 0.0309,7.80519 0.3441,11.69505 0.3878,3.95282 1.15778,7.82412 2.02137,11.69858 0.38665,3.57859 1.25327,7.03326 2.03588,10.5404 0.39217,4.20938 1.20972,8.3474 1.67841,12.54563 0.006,4.04677 0.0152,8.09353 0.0364,12.14026 0.0177,4.11582 0.0699,8.23554 -0.13785,12.34775 -0.3554,4.55791 -1.01421,9.08808 -4.29964,12.55359 -2.97433,2.6452 -6.29527,4.94547 -10.10462,6.21438 -4.65792,1.48892 -8.72569,1.61467 -13.52065,0.57707 -5.31826,-1.42694 -8.74702,-3.48954 -11.34821,-8.52634 -1.81425,-3.62693 -3.25645,-7.36541 -3.78888,-11.41731 -0.49969,-4.15805 -0.23995,-8.34843 -0.30891,-12.53121 0.007,-4.11541 -0.0126,-8.24133 0.39087,-12.34151 0.50399,-3.80552 1.34266,-7.53739 3.55605,-10.75746 0.43566,-0.71048 0.79348,-1.47502 1.30699,-2.13144 2.30785,-2.95018 6.00172,-4.35753 9.58907,-4.88877 4.50326,-0.31401 9.04031,0.23452 13.25121,1.93879 3.69455,1.79778 7.44509,3.95388 10.08691,7.15357 3.56593,5.34889 -3.99855,10.39188 -7.56448,5.04299 z"
       inkscape:connector-curvature="0" />
  </g>
</svg>
